# xmcd CD database file
#
# Track frame offsets:
#	150
#	15776
#	29846
#	49832
#	71758
#	89769
#	108857
#	126142
#	145426
#	161289
#	180945
#	203089
#	230047
#	254379
#	277013
#	297447
#
# Disc length: 4148 seconds
#
# Revision: 4
# Processed by: cddbd v1.4PL0 Copyright (c) Steve Scherf et al.
# Submitted via: CDex 1.50Beta5
#
DISCID=eb103210
DTITLE=La Gata Flora - Blues del Barrio
DYEAR=2002
DGENRE=Blues
TTITLE0=Esperando tu amor
TTITLE1=Blues del barrio
TTITLE2=Amándote al revés
TTITLE3=Todos los días de noche
TTITLE4=Si no estás
TTITLE5=Aquellos tiempos
TTITLE6=Boogie media hora
TTITLE7=El tiempo nos ganó
TTITLE8=Dos acordes
TTITLE9=Las apariencias engañan
TTITLE10=Parando el tren
TTITLE11=Moraleja
TTITLE12=Boogie de la ruta 39
TTITLE13=Perla rota
TTITLE14=No me mires
TTITLE15=Contento de más
EXTD=YEAR: 2002
EXTT0=
EXTT1=
EXTT2=
EXTT3=
EXTT4=
EXTT5=
EXTT6=
EXTT7=
EXTT8=
EXTT9=
EXTT10=
EXTT11=
EXTT12=
EXTT13=
EXTT14=
EXTT15=
PLAYORDER=
